<svg width="202" height="32" viewBox="0 0 202 32" fill="none" xmlns="http://www.w3.org/2000/svg">
<title>IA Collaborative</title>
<g clip-path="url(#clip0_9_1493)">
<path d="M16.0406 0C7.17978 0 0 7.16248 0 15.998C0 24.8336 7.17978 32 16.0406 32C24.9014 32 32.0812 24.8375 32.0812 15.998C32.0812 7.15857 24.8975 0 16.0406 0ZM6.11538 23.0587L11.6573 7.3819H15.5104L9.96842 23.0587H6.11538ZM22.1088 23.0587L21.0798 20.1474H17.4114L18.4718 17.15H20.0233L18.6054 13.1417L15.1019 23.0547H11.2488L16.7908 7.37799H20.4239L25.9658 23.0547H22.1128L22.1088 23.0587Z" fill="black"></path>
<path d="M43.9427 7.38582H47.3834V23.0587H43.9427V7.38582Z" fill="black"></path>
<path d="M54.7988 7.32313H58.0902L63.6518 23.0587H60.1483L58.9818 19.5636H53.6323L52.4226 23.0587H49.2372L54.7988 7.32313ZM58.1766 17.0638L56.3699 11.7272H56.3267L54.4807 17.0638H58.1766Z" fill="black"></path>
<path d="M67.9408 15.2026C67.9408 9.76026 71.1026 7.09196 75.0734 7.09196C79.0443 7.09196 80.7646 9.21171 81.4402 12.0289L78.1724 12.981C77.6618 11.1786 76.8959 9.95225 75.0499 9.95225C72.6736 9.95225 71.3971 11.9662 71.3971 15.2066C71.3971 18.4469 72.7129 20.5863 75.0931 20.5863C76.9391 20.5863 77.8503 19.4226 78.4041 17.2832L81.6523 18.0042C80.8864 21.1583 79.0208 23.3604 75.0734 23.3604C70.9769 23.3604 67.9408 20.7352 67.9408 15.2066V15.2026Z" fill="black"></path>
<path d="M83.0427 17.4243C83.0427 12.9967 86.0788 11.5352 88.84 11.5352C91.6011 11.5352 94.6136 12.9967 94.6136 17.4243C94.6136 21.8518 91.5776 23.2898 88.84 23.2898C86.1024 23.2898 83.0427 21.8087 83.0427 17.4243ZM91.1926 17.4439C91.1926 15.5592 90.5328 14.035 88.836 14.035C87.1393 14.035 86.4559 15.4103 86.4559 17.4439C86.4559 19.3285 87.0922 20.8958 88.836 20.8958C90.4503 20.8958 91.1926 19.497 91.1926 17.4439Z" fill="black"></path>
<path d="M96.1925 7.38582H99.5899V23.0587H96.1925V7.38582Z" fill="black"></path>
<path d="M102.009 7.38582H105.407V23.0587H102.009V7.38582Z" fill="black"></path>
<path d="M107.072 20.1788C107.072 17.5732 109.28 16.1352 114.248 15.7316V15.4573C114.248 14.6306 113.824 14.1016 112.72 14.1016C111.279 14.1016 110.045 14.6933 109.005 15.5004L107.559 13.5531C108.683 12.5383 110.383 11.5391 113.207 11.5391C116.306 11.5391 117.579 13.0633 117.579 15.9667V20.3081C117.579 21.6638 117.665 22.4905 117.897 23.0626H114.499C114.35 22.5963 114.244 22.0478 114.244 21.4091C113.203 22.5728 111.974 23.2311 110.297 23.2311C108.557 23.2311 107.068 22.1104 107.068 20.1827L107.072 20.1788ZM114.244 19.689V17.5928C111.546 17.867 110.403 18.5449 110.403 19.5832C110.403 20.3042 110.913 20.6646 111.656 20.6646C112.846 20.6646 113.675 20.2611 114.244 19.689Z" fill="black"></path>
<path d="M123.066 21.7225V23.0587H119.649V7.38582H123.066V13.5061C123.808 12.4677 124.868 11.5352 126.546 11.5352C129.114 11.5352 130.897 13.5061 130.897 17.4008C130.897 21.2955 129.095 23.2232 126.502 23.2232C124.974 23.2232 123.914 22.6747 123.066 21.7225ZM127.48 17.4243C127.48 15.5396 126.82 14.3524 125.293 14.3524C124.421 14.3524 123.635 14.8814 123.066 15.4534V19.6263C123.808 20.3237 124.425 20.6646 125.336 20.6646C126.758 20.6646 127.48 19.4774 127.48 17.4243Z" fill="black"></path>
<path d="M132.414 17.4243C132.414 12.9967 135.45 11.5352 138.211 11.5352C140.972 11.5352 143.984 12.9967 143.984 17.4243C143.984 21.8518 140.948 23.2898 138.211 23.2898C135.473 23.2898 132.414 21.8087 132.414 17.4243ZM140.567 17.4439C140.567 15.5592 139.911 14.035 138.211 14.035C136.51 14.035 135.835 15.4103 135.835 17.4439C135.835 19.3285 136.471 20.8958 138.211 20.8958C139.825 20.8958 140.567 19.497 140.567 17.4439Z" fill="black"></path>
<path d="M145.622 11.7703H149.039V13.655H149.059C149.676 12.7028 150.756 11.5352 152.881 11.5352H152.987L152.943 14.564C152.818 14.5405 152.264 14.5013 152.052 14.5013C150.693 14.5013 149.676 15.2222 149.039 16.049V23.0586H145.622V11.7703Z" fill="black"></path>
<path d="M153.776 20.1788C153.776 17.5732 155.983 16.1352 160.952 15.7316V15.4573C160.952 14.6306 160.528 14.1016 159.424 14.1016C157.979 14.1016 156.749 14.6933 155.709 15.5004L154.263 13.5531C155.386 12.5383 157.087 11.5391 159.911 11.5391C163.01 11.5391 164.283 13.0633 164.283 15.9667V20.3081C164.283 21.6638 164.369 22.4905 164.601 23.0626H161.203C161.054 22.5963 160.948 22.0478 160.948 21.4091C159.907 22.5728 158.678 23.2311 157.001 23.2311C155.261 23.2311 153.776 22.1104 153.776 20.1827V20.1788ZM160.948 19.689V17.5928C158.254 17.867 157.107 18.5449 157.107 19.5832C157.107 20.3042 157.617 20.6646 158.36 20.6646C159.55 20.6646 160.375 20.2611 160.948 19.689Z" fill="black"></path>
<path d="M166.388 19.881V7.89519H169.785V11.7703H172.696V14.2466H169.785V19.1404C169.785 20.3473 170.127 20.7273 171.356 20.7273C171.737 20.7273 172.248 20.6842 172.48 20.6019V23.0351C172.224 23.0978 170.971 23.2036 170.229 23.2036C166.875 23.2036 166.388 21.9968 166.388 19.8771V19.881Z" fill="black"></path>
<path d="M174.711 7.49162H178.151V10.2226H174.711V7.49162ZM174.73 11.7703H178.128V23.0587H174.73V11.7703Z" fill="black"></path>
<path d="M179.644 11.7703H183.167L185.543 19.2893H185.586L187.966 11.7703H191.171L187.138 23.0782H183.697L179.644 11.7703Z" fill="black"></path>
<path d="M191.109 17.4243C191.109 13.0398 194.463 11.5352 196.8 11.5352C199.137 11.5352 202 12.6989 202 17.8239V18.3333H194.506C194.675 20.1984 195.716 20.9193 197.138 20.9193C198.477 20.9193 199.726 20.261 200.492 19.5636L201.808 21.5972C200.492 22.7178 198.858 23.2898 196.882 23.2898C193.933 23.2898 191.109 21.7852 191.109 17.4243ZM198.94 16.3233C198.771 14.7364 198.049 13.9723 196.776 13.9723C195.716 13.9723 194.801 14.6698 194.549 16.3233H198.944H198.94Z" fill="black"></path>
</g>
<defs>
<clipPath id="clip0_9_1493">
<rect width="202" height="32" fill="white"></rect>
</clipPath>
</defs>
</svg>